<svg version="1.2" xmlns="http://www.w3.org/2000/svg" viewBox="0 0 400 300" width="400" height="300">
	<title>download-svg</title>
	<style>
		.s0 { fill: #ffffff;stroke: #000000;stroke-width: 0 } 
		.s1 { fill: #ffffff } 
	</style>
	<g id="tight-bounds">
		<g id="Layer">
			<g id="Layer">
				<g id="Layer">
				</g>
			</g>
			<g id="Layer">
				<g id="Layer">
					<g id="Layer">
						<g id="Layer">
							<g id="Layer">
								<g id="Layer">
									<g id="Layer">
										<path id="o-0" class="s0" d="m41.8 158.1c0-0.6 0.4-1 1-1h314.4c0.6 0 1 0.4 1 1v2.4c0 0.5-0.4 1-1 1h-314.4c-0.6 0-1-0.5-1-1z"/>
									</g>
									<g id="Layer">
										<g id="Layer">
											<g id="Layer">
												<g id="Layer">
													<g id="Layer">
														<g id="Layer">
															<g id="Layer">
																<g id="Layer">
																	<path id="text-0" fill-rule="evenodd" class="s1" d="m45.6 208l11.6-34.7h9.3l11.6 34.7 2.9 0.6v3.4h-16.4v-3.4l3.7-0.6-1.8-6.2h-12.4l-1.7 6.3 4 0.5v3.4h-13.8v-3.4zm19.8-10.2l-4.4-15.5-0.8-3.6-0.8 3.6-4.2 15.5zm30.4 14.7q-2.9 0-5.3-0.4-2.4-0.5-5.1-1.3-1.7-0.5-2.4-0.6l0.4-9.7h4.8l1.3 6.7q0.6 0.7 2.1 1.2 1.6 0.5 3.7 0.5 3.2 0 4.7-1.4 1.6-1.4 1.6-3.8 0-1.8-1-3-1-1.3-2.8-2.4-1.8-1-4.9-2.4-4.1-1.9-6.9-4.8-2.8-2.8-2.8-7.6 0-2.9 1.5-5.3 1.5-2.3 4.5-3.8 3.1-1.4 7.6-1.4 2.8 0 4.8 0.3 2.1 0.4 4.4 1 1.3 0.4 1.9 0.5l-0.3 9.2h-4.7l-1.2-6.4q-0.3-0.4-1.6-0.8-1.3-0.4-2.8-0.4-2.9 0-4.3 1.3-1.4 1.4-1.4 3.5 0 1.9 1.2 3.3 1.1 1.4 2.8 2.3 1.7 1 5.2 2.7 2.7 1.3 4.8 2.7 2 1.4 3.5 3.6 1.4 2.2 1.4 5.1 0 2.8-1.3 5.5-1.4 2.6-4.7 4.4-3.3 1.7-8.7 1.7zm15-35.4v-3.7h16.5v3.7l-4.3 0.7 6.2 22.8 1 4.9 0.9-4.9 5.3-18.4-1.5-4.4-3.3-0.7v-3.7h17.3v3.7l-4.9 0.7 6.2 22.8 1.1 5.3 0.9-5.3 5.5-22.8-4.4-0.7v-3.7h12.6v3.7l-3.2 0.7-9.6 34.4h-7.9l-6.7-23.1-6.3 23.1h-7.9l-10.5-34.4zm56.2 30.9l11.6-34.7h9.3l11.6 34.7 2.9 0.6v3.4h-16.4v-3.4l3.7-0.6-1.7-6.2h-12.4l-1.8 6.3 4 0.5v3.4h-13.8v-3.4zm19.9-10.2l-4.5-15.5-0.8-3.6-0.8 3.6-4.2 15.5zm56.1 23.8q-3.3 0-6-1.4-2.7-1.4-6.3-4-2.3-1.7-3.7-2.6-1.4-0.9-2.9-1.4-2.2 0.3-3.9 0.3-8.7 0-12.9-5.2-4.2-5.3-4.2-14.5 0-6 2.2-10.5 2.2-4.5 6.2-6.9 4-2.4 9.4-2.4 8.9 0 13.1 4.9 4.2 5 4.2 14.1 0 6.4-2.4 11.1-2.4 4.8-6.8 7.2 1.8 0.4 3.6 1.1 1.8 0.8 4.4 2 3.2 1.6 5.2 2.3 2 0.7 3.9 0.7 1.9 0 2.7-0.3l0.8 2.5q-1.4 1.6-2.8 2.3-1.5 0.7-3.8 0.7zm-22.4-12.6q3.7 0 5.8-4.3 2-4.4 2-12.6 0-8.3-1.9-12-2-3.7-5.8-3.7-3.7 0-5.8 4.1-2 4.1-2 12.2 0 8.3 2 12.3 2 4 5.7 4zm39.1 3.4q-8 0-12-3.9-4-3.9-4-12.2v-18.5l-3.2-0.7v-3.7h16.7v3.7l-4.4 0.7v19.2q0 11.7 8.2 11.7 4 0 5.9-3.1 1.9-3 1.9-8.5v-19.3l-4.4-0.7v-3.7h13.4v3.7l-3.4 0.7v18.9q0 8-4 11.8-3.9 3.9-10.7 3.9zm24.4-4.4v-30.3l-4-0.6v-3.7h13l14.3 22.1 2.9 6.2v-24l-4.4-0.6v-3.7h13.3v3.7l-4 0.6v34.2h-7.6l-15.2-23.6-3.4-6.9v26.6l5.5 0.5v3.4h-14.4v-3.4zm37.9 0l11.5-34.7h9.4l11.6 34.8 2.8 0.5v3.4h-16.3v-3.4l3.7-0.5-1.8-6.2h-12.4l-1.7 6.2 4 0.5v3.4h-13.8v-3.4zm19.8-10.2l-4.4-15.5-0.8-3.6-0.8 3.7-4.2 15.4z"/>
																</g>
															</g>
														</g>
													</g>
												</g>
											</g>
										</g>
									</g>
									<g id="Layer">
										<g id="Layer">
											<g id="Layer">
												<g id="icon-0">
													<path id="Layer" fill-rule="evenodd" class="s1" d="m231.7 96.4q0.1 0.2 0.1 0.3v43.2c0 0.9-0.7 1.5-1.5 1.5-0.8 0-1.5-0.6-1.5-1.5v-41c-1 0.5-2.2 0.7-3.4 0.7-2.6 0-4.9-1.3-6.3-3.2-1.5 1.9-3.8 3.2-6.4 3.2-2.6 0-4.9-1.3-6.3-3.2-1.5 1.9-3.8 3.2-6.4 3.2-2.6 0-4.9-1.3-6.4-3.2-1.4 1.9-3.7 3.2-6.3 3.2-2.6 0-4.9-1.3-6.4-3.2-1.4 1.9-3.7 3.2-6.3 3.2q-1.4 0-2.6-0.4v40.7c0 0.9-0.7 1.5-1.5 1.5-0.9 0-1.5-0.6-1.5-1.5v-42.6c-1.4-1.4-2.3-3.4-2.3-5.5q0-0.2 0.1-0.4v-0.1l2.2-7.4c0.2-0.7 0.8-1.1 1.5-1.1h59.8c0.7 0 1.3 0.5 1.4 1.2l1.5 7.5q0.1 0.1 0.1 0.3c0 1.7-0.6 3.3-1.6 4.6q0 0 0 0zm-1.4-4.5l-1.2-6.1h-57.5l-1.9 6.2c0.1 2.6 2.3 4.6 4.9 4.6 2.7 0 4.8-2.1 4.8-4.8 0-0.8 0.7-1.5 1.5-1.5 0.9 0 1.5 0.7 1.5 1.5 0 2.7 2.2 4.8 4.9 4.8 2.7 0 4.8-2.1 4.8-4.8 0-0.8 0.7-1.5 1.5-1.5 0.9 0 1.5 0.7 1.5 1.5 0 2.7 2.2 4.8 4.9 4.8 2.7 0 4.9-2.1 4.9-4.8 0-0.8 0.6-1.5 1.5-1.5 0.8 0 1.5 0.7 1.5 1.5 0 2.7 2.1 4.8 4.8 4.8 2.7 0 4.9-2.1 4.9-4.8 0-0.8 0.6-1.5 1.5-1.5 0.8 0 1.5 0.7 1.5 1.5 0 2.7 2.1 4.8 4.8 4.8 2.7 0 4.8-2.1 4.9-4.7zm-1.5-10.6h-56.8c-0.9 0-1.5-0.7-1.5-1.5 0-0.8 0.6-1.5 1.5-1.5h56.8c0.8 0 1.5 0.7 1.5 1.5 0 0.8-0.7 1.5-1.5 1.5zm3 64.3h-63.6c-0.8 0-1.5-0.7-1.5-1.5 0-0.8 0.7-1.5 1.5-1.5h63.6c0.8 0 1.5 0.7 1.5 1.5 0 0.8-0.7 1.5-1.5 1.5zm-40.4-5.8h-15c-0.8 0-1.4-0.7-1.4-1.5v-31.4c0-0.8 0.6-1.5 1.4-1.5h15c0.8 0 1.5 0.7 1.5 1.5v31.4c0 0.8-0.7 1.5-1.5 1.5zm-13.5-3h12v-28.4h-12zm46.4 3h-26.9c-0.8 0-1.5-0.7-1.5-1.5v-31.4c0-0.8 0.7-1.5 1.5-1.5h26.9c0.8 0 1.5 0.7 1.5 1.5v31.4c0 0.8-0.7 1.5-1.5 1.5zm-25.4-3h23.9v-28.4h-23.9zm-11-12.7c0 0.8-0.7 1.5-1.5 1.5-0.9 0-1.5-0.7-1.5-1.5 0-0.9 0.6-1.5 1.5-1.5 0.8 0 1.5 0.6 1.5 1.5zm18.5 1.8c-0.4 0-0.8-0.1-1.1-0.4-0.6-0.6-0.6-1.6 0-2.1l3.7-3.7c0.6-0.6 1.5-0.6 2.1 0 0.6 0.6 0.6 1.5 0 2.1l-3.7 3.7c-0.3 0.3-0.6 0.4-1 0.4zm5.2 0c-0.4 0-0.7-0.1-1-0.4-0.6-0.6-0.6-1.6 0-2.1l3.6-3.7c0.6-0.6 1.6-0.6 2.2 0 0.5 0.6 0.5 1.5 0 2.1l-3.7 3.7c-0.3 0.3-0.7 0.4-1.1 0.4z"/>
												</g>
											</g>
										</g>
									</g>
									<g id="Layer">
										<path id="Layer" class="s1" d="m241.2 140.2h56.1v4.4h-56.1z"/>
										<path id="Layer" class="s1" d="m102.7 140.2h56.1v4.4h-56.1z"/>
									</g>
								</g>
							</g>
						</g>
					</g>
					<g id="Layer">
					</g>
				</g>
			</g>
		</g>
	</g>
</svg>